<svg xmlns="http://www.w3.org/2000/svg" width="10" height="10" viewBox="0 0 10 10">
  <g id="Group_1" data-name="Group 1" transform="translate(-148 -229)">
    <circle id="Ellipse_1" data-name="Ellipse 1" cx="5" cy="5" r="5" transform="translate(148 229)" fill="#fcd4dc"/>
    <path id="Icon_awesome-paint-brush" data-name="Icon awesome-paint-brush" d="M1.635,3.029a.991.991,0,0,0-.952.708.149.149,0,0,1-.143.1C.432,3.835.1,3.564,0,3.5c0,.806.372,1.515,1.254,1.515A1.133,1.133,0,0,0,2.506,3.837.849.849,0,0,0,2.5,3.748l-.862-.718ZM4.483,0A.6.6,0,0,0,4.09.161c-2,1.788-2.21,1.83-2.21,2.357a.907.907,0,0,0,.085.379l.625.521a.9.9,0,0,0,.219.03C3.418,3.447,3.77,3,4.877.936a1.008,1.008,0,0,0,.136-.45A.51.51,0,0,0,4.483,0Z" transform="translate(150.082 231.493)" fill="#ee2a52"/>
  </g>
</svg>
